<svg width="640" height="384" viewBox="0 0 640 384" xmlns="http://www.w3.org/2000/svg"><title>AWS CLI Logo</title><path d="M290.416 207.477h-31.63L251.608 227h-6.172l26.366-69.672h5.598L303.767 227h-6.125l-7.226-19.523zm-29.812-5.025h27.946l-13.973-37.946-13.973 37.946zm59.273 5.742l2.153 10.815 2.632-10.336 15.121-51.345h5.312l14.93 51.345 2.584 10.431 2.296-10.91 12.585-50.866h6.03L365.67 227h-5.646l-15.791-54.503-1.77-6.89-1.724 6.89L324.567 227h-5.647l-17.8-69.672h6.029l12.728 50.866zm110.713 1.675c0-3.86-1.356-6.914-4.067-9.163-2.712-2.25-7.672-4.387-14.882-6.413-7.21-2.025-12.473-4.234-15.791-6.627-4.721-3.382-7.082-7.816-7.082-13.303 0-5.327 2.193-9.658 6.58-12.991 4.386-3.334 9.993-5 16.82-5 4.625 0 8.764.892 12.417 2.679 3.653 1.786 6.484 4.275 8.494 7.465 2.01 3.19 3.014 6.747 3.014 10.67h-5.933c0-4.753-1.627-8.573-4.881-11.46-3.254-2.887-7.625-4.33-13.112-4.33-5.327 0-9.57 1.188-12.728 3.564-3.158 2.377-4.737 5.48-4.737 9.308 0 3.54 1.42 6.428 4.258 8.66 2.84 2.234 7.385 4.204 13.638 5.91 6.253 1.707 10.99 3.478 14.212 5.312 3.222 1.834 5.646 4.027 7.273 6.58 1.627 2.552 2.44 5.566 2.44 9.043 0 5.487-2.192 9.89-6.579 13.207-4.386 3.318-10.168 4.977-17.346 4.977-4.913 0-9.419-.877-13.518-2.632-4.1-1.754-7.21-4.21-9.331-7.369-2.122-3.158-3.182-6.779-3.182-10.862h5.886c0 4.913 1.834 8.788 5.502 11.628 3.67 2.839 8.55 4.258 14.643 4.258 5.423 0 9.778-1.196 13.064-3.588 3.285-2.393 4.928-5.567 4.928-9.523zm88.447-6.46c-.223 4.85-1.531 9.132-3.924 12.848-2.393 3.717-5.75 6.596-10.073 8.638-4.322 2.041-9.259 3.062-14.81 3.062-9.155 0-16.365-2.983-21.629-8.948-5.263-5.966-7.895-14.388-7.895-25.266v-3.445c0-6.827 1.188-12.8 3.565-17.92 2.376-5.12 5.798-9.076 10.264-11.868 4.466-2.791 9.634-4.187 15.504-4.187 8.454 0 15.249 2.225 20.385 6.676 5.136 4.45 8.055 10.583 8.756 18.398h-16.748c-.127-4.242-1.196-7.289-3.206-9.14-2.01-1.85-5.072-2.775-9.187-2.775-4.18 0-7.242 1.564-9.188 4.69-1.946 3.126-2.966 8.119-3.062 14.977v4.93c0 7.432.933 12.744 2.8 15.934 1.865 3.19 5.08 4.785 9.641 4.785 3.86 0 6.811-.91 8.853-2.728 2.041-1.818 3.126-4.705 3.254-8.66h16.7zm21.04 10.671h29.236V227H523.28v-69.672h16.796v56.752zM590.591 227h-16.748v-69.672h16.748V227zM126 272l-76-25.895V141l76 24.372V272zm13 0l76-25.895V141l-76 24.372V272zM58 133.467L134.387 112 206 133.467 134.387 158 58 133.467z" fill="#F7A80D" fill-rule="evenodd"/></svg>